<svg xmlns="http://www.w3.org/2000/svg" viewBox="0 0 200 200">
  <rect width="200" height="200" fill="#faf3e0"/>
  <!-- Bowl -->
  <ellipse cx="100" cy="120" rx="75" ry="45" fill="#e8e0d0"/>
  <ellipse cx="100" cy="115" rx="70" ry="40" fill="#f5f0e5"/>
  <!-- Spaghetti -->
  <path d="M50 110 Q70 95 90 108 Q110 120 130 105 Q145 95 150 110" fill="none" stroke="#f0d890" stroke-width="3"/>
  <path d="M45 118 Q65 102 88 115 Q108 128 135 112 Q148 102 155 115" fill="none" stroke="#ecd080" stroke-width="3"/>
  <path d="M55 125 Q75 110 95 120 Q115 130 140 118" fill="none" stroke="#f0d890" stroke-width="2.5"/>
  <path d="M48 105 Q68 90 92 103 Q112 115 138 100" fill="none" stroke="#ecd080" stroke-width="2.5"/>
  <!-- Guanciale bits -->
  <rect x="75" y="103" width="8" height="5" rx="1" fill="#c47050"/>
  <rect x="108" y="108" width="7" height="5" rx="1" fill="#b86040"/>
  <rect x="90" y="112" width="6" height="4" rx="1" fill="#c47050"/>
  <!-- Egg yolk -->
  <circle cx="100" cy="108" r="8" fill="#f0c030"/>
  <circle cx="100" cy="106" r="5" fill="#f5d050" opacity="0.6"/>
  <!-- Black pepper -->
  <circle cx="85" cy="100" r="1.5" fill="#333"/>
  <circle cx="115" cy="104" r="1.5" fill="#333"/>
  <circle cx="105" cy="98" r="1" fill="#333"/>
</svg>