<svg xmlns="http://www.w3.org/2000/svg" viewBox="0 0 200 200">
  <rect width="200" height="200" fill="#faf3e0"/>
  <!-- Plate -->
  <ellipse cx="100" cy="110" rx="80" ry="55" fill="#f0ebe0"/>
  <ellipse cx="100" cy="110" rx="72" ry="48" fill="#fff"/>
  <!-- Arugula bed -->
  <path d="M60 115 Q65 105 72 112 Q68 118 60 115Z" fill="#5a9c4f"/>
  <path d="M70 110 Q75 100 82 107 Q78 114 70 110Z" fill="#4a8c3f"/>
  <path d="M115 112 Q120 102 128 109 Q124 116 115 112Z" fill="#5a9c4f"/>
  <path d="M125 115 Q130 108 136 112 Q132 118 125 115Z" fill="#6aac5f"/>
  <!-- Steak slices -->
  <rect x="72" y="98" width="18" height="22" rx="2" fill="#6a3020" transform="rotate(-5 81 109)"/>
  <rect x="72" y="99" width="18" height="3" fill="#c07060"/>
  <rect x="90" y="96" width="18" height="24" rx="2" fill="#7a3828" transform="rotate(2 99 108)"/>
  <rect x="90" y="97" width="18" height="3" fill="#c07060"/>
  <rect x="108" y="97" width="18" height="22" rx="2" fill="#6a3020" transform="rotate(5 117 108)"/>
  <rect x="108" y="98" width="18" height="3" fill="#c07060"/>
  <!-- Balsamic drizzle -->
  <path d="M75 130 Q90 125 105 130 Q120 135 135 128" fill="none" stroke="#3a1a0a" stroke-width="2" opacity="0.5"/>
</svg>